<mxfile host="app.diagrams.net" modified="2024-07-23T23:59:21.842Z" agent="Mozilla/5.0 (X11; Linux x86_64; rv:121.0) Gecko/20100101 Firefox/121.0" etag="H0NLMaB5w5ONXhujnM6p" version="24.7.1" type="github">
  <diagram name="Page-1" id="j8YNQpNM8I-4UUEtX-gA">
    <mxGraphModel dx="1665" dy="636" grid="0" gridSize="10" guides="1" tooltips="1" connect="1" arrows="1" fold="1" page="1" pageScale="1" pageWidth="850" pageHeight="1100" math="0" shadow="0">
      <root>
        <mxCell id="0" />
        <mxCell id="1" parent="0" />
      </root>
    </mxGraphModel>
  </diagram>
</mxfile>
